<svg xmlns="http://www.w3.org/2000/svg" xmlns:xlink="http://www.w3.org/1999/xlink" width="2942.485" height="961" viewBox="0 0 2942.485 961">
  <defs>
    <linearGradient id="linear-gradient" x1="0.5" x2="0.5" y2="1" gradientUnits="objectBoundingBox">
      <stop offset="0"/>
      <stop offset="1" stop-color="#300090"/>
    </linearGradient>
    <linearGradient id="linear-gradient-2" x1="0.5" x2="0.5" y2="0.669" gradientUnits="objectBoundingBox">
      <stop offset="0" stop-color="#9865fd"/>
      <stop offset="0" stop-color="#6545b1"/>
      <stop offset="0.519" stop-color="#734ad3" stop-opacity="0.349"/>
      <stop offset="1" stop-color="#090256" stop-opacity="0.51"/>
    </linearGradient>
    <clipPath id="clip-path">
      <rect width="2515" height="961" fill="none"/>
    </clipPath>
  </defs>
  <g id="bg" transform="translate(258.348 -60.312)">
    <rect id="Rectangle_1" data-name="Rectangle 1" width="2941" height="774" transform="translate(-256.863 123.312)" fill="url(#linear-gradient)"/>
    <ellipse id="Ellipse_1" data-name="Ellipse 1" cx="237.5" cy="240.5" rx="237.5" ry="240.5" transform="translate(1550.137 242.312)" fill="url(#linear-gradient-2)"/>
    <path id="Path_2" data-name="Path 2" d="M3754,834.533l-89.9-138.916-37.614,47.952-57.608-135.138h-31.825l-76.381-100.263-114.36,139.5-191.166-139.5-245.057,139.5L2770.06,438.421,2610.932,647.666,2496.36,398.182,2362.692,508.169l-133.667-26.514-146.186-43.234L1958.508,545.487l-137.466-37.318-82.75,100.263L1659.3,508.169l-97.8,139.5-97.8-39.234-180.545,87.186L1144,608.432l-124.124,87.186-94.813,27.471-70.687,20.481H813v90.964Z" transform="translate(-1069.863 -7.554)" fill="#030227" style="mix-blend-mode: difference;isolation: isolate"/>
    <path id="Path_1" data-name="Path 1" d="M796.515,991.524,798,801.266,937.48,822.109l71.3-106.327,53.226,106.327,63.872-58.48,100.965,58.48,147.425-281.767,184.519,281.767,138.389-106.327L1860.4,763.629,1991.7,540.342l188.067-196.706,70.969,63.8,95.808,101.011,173.873,207.338L2641.06,593.505l78.066,122.276,74.517-122.276L2885.9,763.629l113.55-170.124,149.034,228.6,131.292-106.327,117.1,106.327,156.131,58.48L3739,895.149v94.723Z" transform="translate(-1054.863 -80.621)"/>
    <g id="Repeat_Grid_1" data-name="Repeat Grid 1" transform="translate(0.137 60.312)" opacity="0.02" clip-path="url(#clip-path)">
      <g transform="translate(0 -60)">
        <rect id="Rectangle_2" data-name="Rectangle 2" width="2941" height="27" transform="translate(0 201)"/>
      </g>
      <g transform="translate(0 -24)">
        <rect id="Rectangle_2-2" data-name="Rectangle 2" width="2941" height="27" transform="translate(0 201)"/>
      </g>
      <g transform="translate(0 12)">
        <rect id="Rectangle_2-3" data-name="Rectangle 2" width="2941" height="27" transform="translate(0 201)"/>
      </g>
      <g transform="translate(0 48)">
        <rect id="Rectangle_2-4" data-name="Rectangle 2" width="2941" height="27" transform="translate(0 201)"/>
      </g>
      <g transform="translate(0 84)">
        <rect id="Rectangle_2-5" data-name="Rectangle 2" width="2941" height="27" transform="translate(0 201)"/>
      </g>
      <g transform="translate(0 120)">
        <rect id="Rectangle_2-6" data-name="Rectangle 2" width="2941" height="27" transform="translate(0 201)"/>
      </g>
      <g transform="translate(0 156)">
        <rect id="Rectangle_2-7" data-name="Rectangle 2" width="2941" height="27" transform="translate(0 201)"/>
      </g>
      <g transform="translate(0 192)">
        <rect id="Rectangle_2-8" data-name="Rectangle 2" width="2941" height="27" transform="translate(0 201)"/>
      </g>
      <g transform="translate(0 228)">
        <rect id="Rectangle_2-9" data-name="Rectangle 2" width="2941" height="27" transform="translate(0 201)"/>
      </g>
      <g transform="translate(0 264)">
        <rect id="Rectangle_2-10" data-name="Rectangle 2" width="2941" height="27" transform="translate(0 201)"/>
      </g>
      <g transform="translate(0 300)">
        <rect id="Rectangle_2-11" data-name="Rectangle 2" width="2941" height="27" transform="translate(0 201)"/>
      </g>
      <g transform="translate(0 336)">
        <rect id="Rectangle_2-12" data-name="Rectangle 2" width="2941" height="27" transform="translate(0 201)"/>
      </g>
      <g transform="translate(0 372)">
        <rect id="Rectangle_2-13" data-name="Rectangle 2" width="2941" height="27" transform="translate(0 201)"/>
      </g>
      <g transform="translate(0 408)">
        <rect id="Rectangle_2-14" data-name="Rectangle 2" width="2941" height="27" transform="translate(0 201)"/>
      </g>
      <g transform="translate(0 444)">
        <rect id="Rectangle_2-15" data-name="Rectangle 2" width="2941" height="27" transform="translate(0 201)"/>
      </g>
      <g transform="translate(0 480)">
        <rect id="Rectangle_2-16" data-name="Rectangle 2" width="2941" height="27" transform="translate(0 201)"/>
      </g>
      <g transform="translate(0 516)">
        <rect id="Rectangle_2-17" data-name="Rectangle 2" width="2941" height="27" transform="translate(0 201)"/>
      </g>
      <g transform="translate(0 552)">
        <rect id="Rectangle_2-18" data-name="Rectangle 2" width="2941" height="27" transform="translate(0 201)"/>
      </g>
      <g transform="translate(0 588)">
        <rect id="Rectangle_2-19" data-name="Rectangle 2" width="2941" height="27" transform="translate(0 201)"/>
      </g>
      <g transform="translate(0 624)">
        <rect id="Rectangle_2-20" data-name="Rectangle 2" width="2941" height="27" transform="translate(0 201)"/>
      </g>
      <g transform="translate(0 660)">
        <rect id="Rectangle_2-21" data-name="Rectangle 2" width="2941" height="27" transform="translate(0 201)"/>
      </g>
      <g transform="translate(0 696)">
        <rect id="Rectangle_2-22" data-name="Rectangle 2" width="2941" height="27" transform="translate(0 201)"/>
      </g>
      <g transform="translate(0 732)">
        <rect id="Rectangle_2-23" data-name="Rectangle 2" width="2941" height="27" transform="translate(0 201)"/>
      </g>
      <g transform="translate(0 768)">
        <rect id="Rectangle_2-24" data-name="Rectangle 2" width="2941" height="27" transform="translate(0 201)"/>
      </g>
      <g transform="translate(0 804)">
        <rect id="Rectangle_2-25" data-name="Rectangle 2" width="2941" height="27" transform="translate(0 201)"/>
      </g>
      <g transform="translate(0 840)">
        <rect id="Rectangle_2-26" data-name="Rectangle 2" width="2941" height="27" transform="translate(0 201)"/>
      </g>
      <g transform="translate(0 876)">
        <rect id="Rectangle_2-27" data-name="Rectangle 2" width="2941" height="27" transform="translate(0 201)"/>
      </g>
    </g>
  </g>
</svg>
